#N canvas 107 62 1113 620 12;
#X declare -path build;
#N canvas 160 90 1295 774 paramters 0;
#X obj 201 21 cnv 15 260 275 empty empty Parameters 20 12 0 14 #e0e0e0 #404040 0;
#X obj 218 50 hsl 170 20 0.01 10 0 0 empty valG Gravity 10 10 0 12 #fce0c4 #000000 #000000 0 1;
#X floatatom 390 52 8 0 0 0 - - - 0;
#X obj 218 72 hsl 170 20 2 10 0 0 empty valcount Count 10 10 0 12 #fce0c4 #000000 #000000 0 1;
#X floatatom 390 74 8 0 0 0 - - - 0;
#X obj 415 327 i;
#X obj 218 94 hsl 170 20 0.001 0.1 0 0 empty valdt Delta_time 10 10 0 12 #fce0c4 #000000 #000000 0 1;
#X floatatom 390 96 8 0 0 0 - - - 0;
#X obj 218 116 hsl 170 20 0 5 0 0 empty valsoft Softening 10 10 0 12 #fce0c4 #000000 #000000 0 1;
#X floatatom 390 118 8 0 0 0 - - - 0;
#X obj 218 138 hsl 170 20 0 0.1 0 0 empty valposdamp Position_damping 10 10 0 12 #fce0c4 #000000 #000000 0 1;
#X floatatom 390 140 8 0 0 0 - - - 0;
#X obj 218 160 hsl 170 20 0 0.1 0 0 empty valveldamp Velocity_damping 10 10 0 12 #fce0c4 #000000 #000000 0 1;
#X floatatom 390 162 8 0 0 0 - - - 0;
#X obj 218 182 hsl 170 20 0.1 1 0 0 empty valvmin Vmin 10 10 0 12 #fce0c4 #000000 #000000 0 1;
#X floatatom 390 184 8 0 0 0 - - - 0;
#X obj 218 204 hsl 170 20 1 100 0 0 empty valvmax Vmax 10 10 0 12 #fce0c4 #000000 #000000 0 1;
#X floatatom 390 206 8 0 0 0 - - - 0;
#X obj 57 377 s param;
#X msg 117 68 G \$1;
#X msg 117 90 count \$1;
#X msg 117 112 dt \$1;
#X obj 218 226 hsl 170 20 1 100 0 0 empty valscale Scale 10 10 0 12 #fce0c4 #000000 #000000 0 1;
#X floatatom 390 228 8 0 0 0 - - - 0;
#X msg 117 156 posdamp \$1;
#X msg 117 178 veldamp \$1;
#X msg 117 134 softening \$1;
#X msg 117 200 vmin \$1;
#X msg 117 222 vmax \$1;
#X msg 117 244 scale \$1;
#X obj 218 248 hsl 170 20 1 15 0 0 empty valpreset Preset 10 10 0 12 #c4fcc4 #000000 #000000 0 1;
#X floatatom 390 250 8 0 0 0 - - - 0;
#X obj 415 350 i;
#X msg 93 350 preset \$1;
#X obj 170 326 loadbang;
#X msg 170 350 params;
#X obj 83 525 r params;
#X obj 83 549 route G dt count softening posdamp veldamp vmin vmax scale;
#X obj 7 598 s valG;
#X obj 56 598 s valdt;
#X obj 112 598 s valcount;
#X obj 189 598 s valsoft;
#X obj 441 598 s valvmin;
#X obj 511 598 s valvmax;
#X obj 581 598 s valscale;
#X text 229 350 get init params;
#X obj 117 266 t b f;
#X obj 259 598 s valposdamp;
#X obj 350 598 s valveldamp;
#X obj 468 21 cnv 15 260 275 empty empty Bodies 20 12 0 14 #e0e0e0 #404040 0;
#X obj 484 50 hsl 170 20 0 9 0 0 empty empty Number 10 10 0 12 #fce0c4 #000000 #000000 0 1;
#X floatatom 656 52 8 0 0 0 - - - 0;
#X obj 754 342 + 1;
#X obj 754 318 i;
#X obj 484 72 hsl 170 20 -500 500 0 0 empty valbx X 10 10 0 12 #fce0c4 #000000 #000000 0 1;
#X floatatom 656 74 8 0 0 0 - - - 0;
#X obj 484 94 hsl 170 20 -500 500 0 0 empty valby Y 10 10 0 12 #fce0c4 #000000 #000000 0 1;
#X floatatom 656 96 8 0 0 0 - - - 0;
#X obj 484 116 hsl 170 20 -5 5 0 0 empty valbvx Vx 10 10 0 12 #fce0c4 #000000 #000000 0 1;
#X floatatom 656 118 8 0 0 0 - - - 0;
#X obj 484 138 hsl 170 20 -5 5 0 0 empty valbvy Vy 10 10 0 12 #fce0c4 #000000 #000000 0 1;
#X floatatom 656 140 8 0 0 0 - - - 0;
#X obj 484 160 hsl 170 20 0.1 100 0 0 empty valbm Mass 10 10 0 12 #fce0c4 #000000 #000000 0 1;
#X floatatom 656 162 8 0 0 0 - - - 0;
#X obj 481 191 bng 30 250 50 0 empty empty Set 35 15 0 20 #c4fcc4 #000000 #000000;
#X obj 438 412 loadbang;
#X obj 438 460 s param;
#X obj 802 503 r inits;
#X msg 438 436 init;
#X obj 802 527 route 0 1 2 3 4 5 6 7 8 9;
#X obj 667 613 spigot;
#X obj 706 589 == 0;
#X obj 1210 569 r nr;
#X obj 717 613 spigot;
#X obj 767 613 spigot;
#X obj 817 613 spigot;
#X obj 867 613 spigot;
#X obj 917 613 spigot;
#X obj 967 613 spigot;
#X obj 1017 613 spigot;
#X obj 1067 613 spigot;
#X obj 1117 613 spigot;
#X obj 756 589 == 1;
#X obj 806 589 == 2;
#X obj 856 589 == 3;
#X obj 906 589 == 4;
#X obj 956 589 == 5;
#X obj 1006 589 == 6;
#X obj 1056 589 == 7;
#X obj 1106 589 == 8;
#X obj 1156 589 == 9;
#X obj 891 679 unpack f f f f f, f 31;
#X obj 891 703 s valbx;
#X obj 947 703 s valby;
#X obj 453 382 t b f;
#X obj 504 412 s nr;
#X obj 468 329 i;
#X obj 1003 703 s valbvx;
#X obj 1066 703 s valbvy;
#X obj 1129 703 s valbm;
#X obj 505 365 f;
#X obj 543 412 pack f f f f f f;
#X obj 543 460 s param;
#X msg 543 436 body \$1 \$2 \$3 \$4 \$5 \$6;
#N canvas 328 154 883 613 thehole 0;
#X obj 40 41 cnv 15 174 173 empty empty Black_hole 5 10 0 14 #000000 #fc8000 0;
#X obj 20 42 vsl 20 170 -500 500 0 0 empty empty empty 0 -9 0 12 #fcfcfc #000000 #000000 0 1;
#X obj 43 215 hsl 170 20 -500 500 0 0 empty empty empty -2 -10 0 12 #fcfcfc #000000 #000000 0 1;
#N canvas 414 792 450 300 \$0screen 0;
#X obj 77 77 bng 20 250 50 0 empty empty empty 0 -10 0 12 #fcfcfc #000000 #000000;
#X coords 0 -1 1 1 175 175 2 0 0;
#X restore 40 40 pd \$0screen;
#X obj 238 458 f \$0;
#X msg 238 484 \; pd-\$1screen clear;
#X obj 37 511 pack f f f;
#X obj 129 491 f \$0;
#X obj 129 466 loadbang;
#X msg 37 539 \; pd-\$3screen obj \$1 \$2 bng;
#X obj 37 483 t b f;
#X obj 238 434 b;
#X obj 95 384 t f b;
#X obj 37 384 t f b;
#X obj 24 20 hsl 190 20 0 1 0 0 empty empty Mass 10 10 0 12 #fcfcfc #000000 #000000 0 1;
#X obj 336 20 loadbang;
#X msg 336 45 0;
#X msg 496 391 hole \$1 \$2 \$3;
#X obj 496 416 s param;
#X obj 490 361 pack f f f;
#X obj 498 291 t b f;
#X obj 445 262 t b f;
#X obj 40 235 bng 20 250 50 0 empty empty Center 25 10 0 12 #fcfcfc #000000 #000000;
#X obj 20 255 tgl 20 0 empty empty LFO 0 -10 0 12 #c4fcc4 #000000 #000000 0 1;
#X obj 491 79 snapshot~;
#X obj 43 255 hsl 170 20 0.001 0.5 0 0 empty empty Speed 10 10 0 12 #fcfcfc #000000 #000000 0 1;
#X obj 43 275 hsl 170 20 0 500 0 0 empty empty Dist.\ to\ center 10 10 0 12 #fcfcfc #000000 #000000 0 1;
#X text 199 358 not the best PD patch in my life;
#X obj 499 262 * 10000;
#X obj 457 232 pow 4;
#X obj 491 102 * 6.28319;
#X obj 491 127 sin;
#X obj 535 129 + 1.5708;
#X obj 535 155 sin;
#X obj 491 51 *~ 1;
#X obj 491 26 phasor~;
#X obj 531 50 metro 10;
#X msg 369 45 2;
#X text 596 389 <== send black hole to simulation;
#X obj 37 433 expr 175 - $f1;
#X obj 491 185 * 1;
#X obj 535 185 * 1;
#X obj 427 318 * 1;
#X obj 462 318 * 1;
#X obj 37 331 + 500;
#X obj 37 356 * 0.175;
#X obj 37 458 * 0.89;
#X obj 143 433 * 0.89;
#X obj 95 356 * 0.175;
#X obj 95 331 + 500;
#X connect 1 0 21 0;
#X connect 1 0 44 0;
#X connect 2 0 42 0;
#X connect 2 0 49 0;
#X connect 4 0 5 0;
#X connect 6 0 9 0;
#X connect 7 0 6 2;
#X connect 8 0 7 0;
#X connect 10 0 6 0;
#X connect 10 1 6 1;
#X connect 11 0 4 0;
#X connect 12 0 47 0;
#X connect 12 1 11 0;
#X connect 13 0 39 0;
#X connect 13 1 11 0;
#X connect 14 0 29 0;
#X connect 15 0 16 0;
#X connect 15 0 37 0;
#X connect 16 0 2 0;
#X connect 16 0 1 0;
#X connect 17 0 18 0;
#X connect 19 0 17 0;
#X connect 20 0 19 0;
#X connect 20 1 19 2;
#X connect 21 0 19 0;
#X connect 21 1 43 0;
#X connect 22 0 16 0;
#X connect 23 0 36 0;
#X connect 24 0 30 0;
#X connect 25 0 35 0;
#X connect 26 0 40 1;
#X connect 26 0 41 1;
#X connect 28 0 20 0;
#X connect 29 0 28 0;
#X connect 30 0 31 0;
#X connect 30 0 32 0;
#X connect 31 0 40 0;
#X connect 32 0 33 0;
#X connect 33 0 41 0;
#X connect 34 0 24 0;
#X connect 35 0 34 0;
#X connect 36 0 24 0;
#X connect 37 0 26 0;
#X connect 39 0 46 0;
#X connect 40 0 2 0;
#X connect 41 0 1 0;
#X connect 42 0 19 0;
#X connect 43 0 19 1;
#X connect 44 0 45 0;
#X connect 45 0 13 0;
#X connect 46 0 10 0;
#X connect 47 0 6 0;
#X connect 48 0 12 0;
#X connect 49 0 48 0;
#X coords 0 -1 1 1 196 275 2 20 20;
#X restore 735 21 pd thehole;
#X text 706 436 Body Nr x y vx vy mass;
#X obj 481 228 bng 30 250 50 0 empty empty Nudge 35 15 0 20 #c4fcc4 #000000 #000000;
#X msg 614 306 nudge;
#X obj 614 330 s param;
#X obj 635 202 bng 50 250 50 0 empty empty Step 2 25 0 20 #ffe3c6 #000000 #000000;
#X connect 1 0 2 0;
#X connect 1 0 19 0;
#X connect 3 0 5 0;
#X connect 3 0 20 0;
#X connect 5 0 4 0;
#X connect 6 0 7 0;
#X connect 6 0 21 0;
#X connect 8 0 9 0;
#X connect 8 0 26 0;
#X connect 10 0 11 0;
#X connect 10 0 24 0;
#X connect 12 0 13 0;
#X connect 12 0 25 0;
#X connect 14 0 15 0;
#X connect 14 0 27 0;
#X connect 16 0 17 0;
#X connect 16 0 28 0;
#X connect 19 0 18 0;
#X connect 20 0 18 0;
#X connect 21 0 18 0;
#X connect 22 0 23 0;
#X connect 22 0 29 0;
#X connect 24 0 18 0;
#X connect 25 0 18 0;
#X connect 26 0 18 0;
#X connect 27 0 18 0;
#X connect 28 0 18 0;
#X connect 29 0 18 0;
#X connect 30 0 32 0;
#X connect 30 0 46 0;
#X connect 32 0 31 0;
#X connect 33 0 18 0;
#X connect 34 0 35 0;
#X connect 35 0 18 0;
#X connect 36 0 37 0;
#X connect 37 0 38 0;
#X connect 37 1 39 0;
#X connect 37 2 40 0;
#X connect 37 3 41 0;
#X connect 37 4 47 0;
#X connect 37 5 48 0;
#X connect 37 6 42 0;
#X connect 37 7 43 0;
#X connect 37 8 44 0;
#X connect 46 0 35 0;
#X connect 46 1 33 0;
#X connect 50 0 53 0;
#X connect 50 0 96 0;
#X connect 52 0 51 0;
#X connect 53 0 52 0;
#X connect 54 0 55 0;
#X connect 54 0 101 1;
#X connect 56 0 57 0;
#X connect 56 0 101 2;
#X connect 58 0 59 0;
#X connect 58 0 101 3;
#X connect 60 0 61 0;
#X connect 60 0 101 4;
#X connect 62 0 63 0;
#X connect 62 0 101 5;
#X connect 64 0 100 0;
#X connect 65 0 68 0;
#X connect 67 0 69 0;
#X connect 68 0 66 0;
#X connect 69 0 70 0;
#X connect 69 1 73 0;
#X connect 69 2 74 0;
#X connect 69 3 75 0;
#X connect 69 4 76 0;
#X connect 69 5 77 0;
#X connect 69 6 78 0;
#X connect 69 7 79 0;
#X connect 69 8 80 0;
#X connect 69 9 81 0;
#X connect 70 0 91 0;
#X connect 71 0 70 1;
#X connect 72 0 71 0;
#X connect 72 0 82 0;
#X connect 72 0 83 0;
#X connect 72 0 84 0;
#X connect 72 0 85 0;
#X connect 72 0 86 0;
#X connect 72 0 87 0;
#X connect 72 0 88 0;
#X connect 72 0 89 0;
#X connect 72 0 90 0;
#X connect 73 0 91 0;
#X connect 74 0 91 0;
#X connect 75 0 91 0;
#X connect 76 0 91 0;
#X connect 77 0 91 0;
#X connect 78 0 91 0;
#X connect 79 0 91 0;
#X connect 80 0 91 0;
#X connect 81 0 91 0;
#X connect 82 0 73 1;
#X connect 83 0 74 1;
#X connect 84 0 75 1;
#X connect 85 0 76 1;
#X connect 86 0 77 1;
#X connect 87 0 78 1;
#X connect 88 0 79 1;
#X connect 89 0 80 1;
#X connect 90 0 81 1;
#X connect 91 0 92 0;
#X connect 91 1 93 0;
#X connect 91 2 97 0;
#X connect 91 3 98 0;
#X connect 91 4 99 0;
#X connect 94 0 68 0;
#X connect 94 1 95 0;
#X connect 96 0 94 0;
#X connect 96 0 100 1;
#X connect 100 0 101 0;
#X connect 101 0 103 0;
#X connect 103 0 102 0;
#X connect 106 0 107 0;
#X connect 107 0 108 0;
#X connect 109 0 108 0;
#X coords 0 -1 1 1 732 277 2 200 20;
#X restore 10 9 pd paramters;
#N canvas 79 190 1583 819 results 0;
#X obj 711 132 cnv 15 610 25 empty empty empty 5 12 0 14 #e0e0e0 #404040 0;
#X floatatom 781 137 10 0 0 0 X - - 0;
#X floatatom 867 137 10 0 0 0 Y - - 0;
#X floatatom 960 137 10 0 0 0 Vx - - 0;
#X floatatom 1148 137 10 0 0 0 Ax - - 0;
#X floatatom 1240 137 10 0 0 0 Ay - - 0;
#X text 714 135 Body 1:;
#X obj 711 157 cnv 15 610 25 empty empty empty 5 12 0 14 #dcdcdc #404040 0;
#X floatatom 781 162 10 0 0 0 X - - 0;
#X floatatom 867 162 10 0 0 0 Y - - 0;
#X floatatom 960 162 10 0 0 0 Vx - - 0;
#X floatatom 1148 162 10 0 0 0 Ax - - 0;
#X floatatom 1240 162 10 0 0 0 Ay - - 0;
#X obj 711 182 cnv 15 610 25 empty empty empty 5 12 0 14 #e0e0e0 #404040 0;
#X floatatom 781 187 10 0 0 0 X - - 0;
#X floatatom 867 187 10 0 0 0 Y - - 0;
#X floatatom 960 187 10 0 0 0 Vx - - 0;
#X floatatom 1148 187 10 0 0 0 Ax - - 0;
#X floatatom 1240 187 10 0 0 0 Ay - - 0;
#X obj 711 208 cnv 15 610 25 empty empty empty 5 12 0 14 #dcdcdc #404040 0;
#X floatatom 781 213 10 0 0 0 X - - 0;
#X floatatom 867 213 10 0 0 0 Y - - 0;
#X floatatom 960 213 10 0 0 0 Vx - - 0;
#X floatatom 1148 213 10 0 0 0 Ax - - 0;
#X floatatom 1240 213 10 0 0 0 Ay - - 0;
#X obj 711 233 cnv 15 610 25 empty empty empty 5 12 0 14 #e0e0e0 #404040 0;
#X floatatom 781 238 10 0 0 0 X - - 0;
#X floatatom 867 238 10 0 0 0 Y - - 0;
#X floatatom 960 238 10 0 0 0 Vx - - 0;
#X floatatom 1148 238 10 0 0 0 Ax - - 0;
#X floatatom 1240 238 10 0 0 0 Ay - - 0;
#X obj 711 258 cnv 15 610 25 empty empty empty 5 12 0 14 #dcdcdc #404040 0;
#X floatatom 781 263 10 0 0 0 X - - 0;
#X floatatom 867 263 10 0 0 0 Y - - 0;
#X floatatom 960 263 10 0 0 0 Vx - - 0;
#X floatatom 1148 263 10 0 0 0 Ax - - 0;
#X floatatom 1240 263 10 0 0 0 Ay - - 0;
#X obj 711 283 cnv 15 610 25 empty empty empty 5 12 0 14 #e0e0e0 #404040 0;
#X floatatom 781 288 10 0 0 0 X - - 0;
#X floatatom 867 288 10 0 0 0 Y - - 0;
#X floatatom 960 288 10 0 0 0 Vx - - 0;
#X floatatom 1148 288 10 0 0 0 Ax - - 0;
#X floatatom 1240 288 10 0 0 0 Ay - - 0;
#X obj 711 309 cnv 15 610 25 empty empty empty 5 12 0 14 #dcdcdc #404040 0;
#X floatatom 781 314 10 0 0 0 X - - 0;
#X floatatom 867 314 10 0 0 0 Y - - 0;
#X floatatom 960 314 10 0 0 0 Vx - - 0;
#X floatatom 1148 314 10 0 0 0 Ax - - 0;
#X floatatom 1240 314 10 0 0 0 Ay - - 0;
#X obj 711 334 cnv 15 610 25 empty empty empty 5 12 0 14 #e0e0e0 #404040 0;
#X floatatom 781 339 10 0 0 0 X - - 0;
#X floatatom 867 339 10 0 0 0 Y - - 0;
#X floatatom 960 339 10 0 0 0 Vx - - 0;
#X floatatom 1148 339 10 0 0 0 Ax - - 0;
#X floatatom 1240 339 10 0 0 0 Ay - - 0;
#X obj 711 359 cnv 15 610 25 empty empty empty 5 12 0 14 #dcdcdc #404040 0;
#X floatatom 781 364 10 0 0 0 X - - 0;
#X floatatom 867 364 10 0 0 0 Y - - 0;
#X floatatom 960 364 10 0 0 0 Vx - - 0;
#X floatatom 1148 364 10 0 0 0 Ax - - 0;
#X floatatom 1240 364 10 0 0 0 Ay - - 0;
#X text 714 160 Body 2:;
#X text 714 185 Body 3:;
#X text 714 211 Body 4:;
#X text 714 236 Body 5:;
#X text 714 261 Body 6:;
#X text 714 286 Body 7:;
#X text 714 312 Body 8:;
#X text 714 337 Body 9:;
#X text 714 362 Body 10:;
#X obj 18 35 r pos;
#X obj 18 117 unpack f f;
#X obj 35 142 unpack f f;
#X obj 52 167 unpack f f;
#X obj 69 193 unpack f f;
#X obj 86 218 unpack f f;
#X obj 103 243 unpack f f;
#X obj 120 268 unpack f f;
#X obj 137 294 unpack f f;
#X obj 155 319 unpack f f;
#X obj 172 344 unpack f f;
#X obj 221 117 unpack f f;
#X obj 238 142 unpack f f;
#X obj 255 167 unpack f f;
#X obj 272 193 unpack f f;
#X obj 289 218 unpack f f;
#X obj 306 243 unpack f f;
#X obj 323 268 unpack f f;
#X obj 340 294 unpack f f;
#X obj 358 319 unpack f f;
#X obj 375 344 unpack f f;
#X obj 221 35 r vel;
#X floatatom 1054 137 10 0 0 0 Vy - - 0;
#X floatatom 1054 162 10 0 0 0 Vy - - 0;
#X floatatom 1054 187 10 0 0 0 Vy - - 0;
#X floatatom 1054 213 10 0 0 0 Vy - - 0;
#X floatatom 1054 238 10 0 0 0 Vy - - 0;
#X floatatom 1054 263 10 0 0 0 Vy - - 0;
#X floatatom 1054 288 10 0 0 0 Vy - - 0;
#X floatatom 1054 314 10 0 0 0 Vy - - 0;
#X floatatom 1054 339 10 0 0 0 Vy - - 0;
#X floatatom 1054 364 10 0 0 0 Vy - - 0;
#X obj 442 117 unpack f f;
#X obj 459 142 unpack f f;
#X obj 476 167 unpack f f;
#X obj 493 193 unpack f f;
#X obj 510 218 unpack f f;
#X obj 527 243 unpack f f;
#X obj 544 268 unpack f f;
#X obj 561 294 unpack f f;
#X obj 579 319 unpack f f;
#X obj 596 344 unpack f f;
#X obj 442 35 r acc;
#X obj 711 384 cnv 15 610 25 empty empty empty 5 12 0 14 #b8b8b8 #404040 0;
#X floatatom 781 389 10 0 0 0 X - - 0;
#X floatatom 867 389 10 0 0 0 Y - - 0;
#X obj 521 398 r hole;
#X text 714 387 Bl.Hole;
#X obj 521 447 unpack f f;
#X text 717 108 Results;
#X obj 18 83 route 0 1 2 3 4 5 6 7 8 9;
#X obj 221 83 route 0 1 2 3 4 5 6 7 8 9;
#X obj 442 83 route 0 1 2 3 4 5 6 7 8 9;
#X obj 787 108 tgl 20 0 empty empty Track 25 10 0 12 #fcfcfc #000000 #000000 0 1;
#X obj 442 59 spigot;
#X obj 221 59 spigot;
#X obj 18 59 spigot;
#X obj 521 422 spigot;
#X obj 1327 132 cnv 20 217 252 empty empty empty 20 12 0 12 #e0e0e0 #404040 0;
#X floatatom 1461 162 11 0 0 0 Angle\ Deg. - - 0;
#X floatatom 1461 137 11 0 0 0 Distance - - 0;
#X obj 934 518 route 0 3;
#X obj 934 546 unpack f f;
#X obj 1013 546 unpack f f;
#X obj 934 493 spigot;
#X obj 934 604 pack f f f f;
#X obj 1113 518 route 0 3;
#X obj 1113 604 pack f f f f;
#X floatatom 1460 187 11 0 0 0 Rel.\ Velocity - - 0;
#X obj 1113 493 spigot;
#X obj 1113 546 unpack f f;
#X obj 1195 546 unpack f f;
#X obj 1033 737 pack f f f f f f f f;
#X floatatom 1460 213 11 0 0 0 Approach - - 0;
#X obj 995 717 f;
#X obj 942 697 r go;
#X floatatom 1460 238 11 0 0 0 Center\ X - - 0;
#X floatatom 1461 263 11 0 0 0 Center\ y - - 0;
#X obj 1342 589 unpack f f;
#X msg 1279 466 \$1 \$2 0 0;
#X obj 934 468 r pos;
#X obj 1113 468 r vel;
#X text 1334 108 Analysis body 1 => body 3;
#X obj 1327 384 cnv 15 217 25 empty empty empty 5 12 0 14 #b8b8b8 #404040 0;
#X floatatom 1461 389 11 0 0 0 Distance\ to\ center - - 0;
#X obj 877 108 tgl 20 0 empty empty Visualizer\ (start\ node\ app) 25 10 0 12 #fcfcfc #000000 #000000 0 1;
#X obj 205 609 f;
#X obj 138 512 unpack f f;
#X obj 215 512 unpack f f;
#X obj 59 512 unpack f f;
#X obj 173 581 t b f;
#X obj 59 484 route 0 1 2 3 4 5 6 7 8 9, f 94;
#X obj 293 512 unpack f f;
#X obj 450 512 unpack f f;
#X obj 527 512 unpack f f;
#X obj 371 512 unpack f f;
#X obj 605 512 unpack f f;
#X obj 683 512 unpack f f;
#X obj 761 512 unpack f f;
#X obj 243 738 netsend -u;
#X obj 243 686 loadbang;
#X msg 243 711 connect localhost 5000;
#X text 159 783 sends x/y positions of all bodies to localhost port 5000;
#X obj 687 614 unpack;
#X obj 59 434 r pos;
#X obj 687 589 r hole;
#X obj 59 459 spigot;
#X obj 938 644 gravf distance;
#X obj 1123 638 gravf relativev;
#X obj 1033 764 gravf approach;
#X obj 1279 494 gravf distance;
#X obj 1342 564 gravf center;
#X obj 965 673 gravf angle;
#X obj 205 634 pack f f f f f f f f f f f f f f f f f f f f f f f;
#X obj 737 614 r distance;
#X msg 205 659 \$1 \$2 \$3 \$4 \$5 \$6 \$7 \$8 \$9 \$10 \$11 \$12 \$13 \$14 \$15 \$16 \$17 \$18 \$19 \$20 \$21 \$22 \$23, f 85;
#X connect 70 0 126 0;
#X connect 71 0 1 0;
#X connect 71 1 2 0;
#X connect 72 0 8 0;
#X connect 72 1 9 0;
#X connect 73 0 14 0;
#X connect 73 1 15 0;
#X connect 74 0 20 0;
#X connect 74 1 21 0;
#X connect 75 0 26 0;
#X connect 75 1 27 0;
#X connect 76 0 32 0;
#X connect 76 1 33 0;
#X connect 77 0 38 0;
#X connect 77 1 39 0;
#X connect 78 0 44 0;
#X connect 78 1 45 0;
#X connect 79 0 50 0;
#X connect 79 1 51 0;
#X connect 80 0 56 0;
#X connect 80 1 57 0;
#X connect 81 0 3 0;
#X connect 81 1 92 0;
#X connect 82 0 10 0;
#X connect 82 1 93 0;
#X connect 83 0 16 0;
#X connect 83 1 94 0;
#X connect 84 0 22 0;
#X connect 84 1 95 0;
#X connect 85 0 28 0;
#X connect 85 1 96 0;
#X connect 86 0 34 0;
#X connect 86 1 97 0;
#X connect 87 0 40 0;
#X connect 87 1 98 0;
#X connect 88 0 46 0;
#X connect 88 1 99 0;
#X connect 89 0 52 0;
#X connect 89 1 100 0;
#X connect 90 0 58 0;
#X connect 90 1 101 0;
#X connect 91 0 125 0;
#X connect 102 0 4 0;
#X connect 102 1 5 0;
#X connect 103 0 11 0;
#X connect 103 1 12 0;
#X connect 104 0 17 0;
#X connect 104 1 18 0;
#X connect 105 0 23 0;
#X connect 105 1 24 0;
#X connect 106 0 29 0;
#X connect 106 1 30 0;
#X connect 107 0 35 0;
#X connect 107 1 36 0;
#X connect 108 0 41 0;
#X connect 108 1 42 0;
#X connect 109 0 47 0;
#X connect 109 1 48 0;
#X connect 110 0 53 0;
#X connect 110 1 54 0;
#X connect 111 0 59 0;
#X connect 111 1 60 0;
#X connect 112 0 124 0;
#X connect 116 0 127 0;
#X connect 118 0 114 0;
#X connect 118 1 115 0;
#X connect 120 0 71 0;
#X connect 120 1 72 0;
#X connect 120 2 73 0;
#X connect 120 3 74 0;
#X connect 120 4 75 0;
#X connect 120 5 76 0;
#X connect 120 6 77 0;
#X connect 120 7 78 0;
#X connect 120 8 79 0;
#X connect 120 9 80 0;
#X connect 121 0 81 0;
#X connect 121 1 82 0;
#X connect 121 2 83 0;
#X connect 121 3 84 0;
#X connect 121 4 85 0;
#X connect 121 5 86 0;
#X connect 121 6 87 0;
#X connect 121 7 88 0;
#X connect 121 8 89 0;
#X connect 121 9 90 0;
#X connect 122 0 102 0;
#X connect 122 1 103 0;
#X connect 122 2 104 0;
#X connect 122 3 105 0;
#X connect 122 4 106 0;
#X connect 122 5 107 0;
#X connect 122 6 108 0;
#X connect 122 7 109 0;
#X connect 122 8 110 0;
#X connect 122 9 111 0;
#X connect 123 0 124 1;
#X connect 123 0 125 1;
#X connect 123 0 126 1;
#X connect 123 0 127 1;
#X connect 123 0 134 1;
#X connect 123 0 139 1;
#X connect 124 0 122 0;
#X connect 125 0 121 0;
#X connect 126 0 120 0;
#X connect 127 0 118 0;
#X connect 131 0 132 0;
#X connect 131 0 149 0;
#X connect 131 1 133 0;
#X connect 132 0 135 0;
#X connect 132 0 144 1;
#X connect 132 1 135 1;
#X connect 132 1 142 1;
#X connect 133 0 135 2;
#X connect 133 0 142 2;
#X connect 133 1 135 3;
#X connect 133 1 142 3;
#X connect 134 0 131 0;
#X connect 135 0 177 0;
#X connect 135 0 181 0;
#X connect 135 0 182 0;
#X connect 136 0 140 0;
#X connect 136 1 141 0;
#X connect 137 0 178 0;
#X connect 139 0 136 0;
#X connect 140 0 137 0;
#X connect 140 0 142 4;
#X connect 140 1 137 1;
#X connect 140 1 142 5;
#X connect 141 0 137 2;
#X connect 141 0 142 6;
#X connect 141 1 137 3;
#X connect 141 1 142 7;
#X connect 142 0 179 0;
#X connect 144 0 142 0;
#X connect 145 0 144 0;
#X connect 148 0 146 0;
#X connect 148 1 147 0;
#X connect 149 0 180 0;
#X connect 150 0 134 0;
#X connect 151 0 139 0;
#X connect 155 0 176 1;
#X connect 156 0 183 0;
#X connect 157 0 183 2;
#X connect 157 1 183 3;
#X connect 158 0 183 4;
#X connect 158 1 183 5;
#X connect 159 0 160 0;
#X connect 159 1 183 1;
#X connect 160 1 156 0;
#X connect 161 0 159 0;
#X connect 161 1 157 0;
#X connect 161 2 158 0;
#X connect 161 3 162 0;
#X connect 161 4 165 0;
#X connect 161 5 163 0;
#X connect 161 6 164 0;
#X connect 161 7 166 0;
#X connect 161 8 167 0;
#X connect 161 9 168 0;
#X connect 162 0 183 6;
#X connect 162 1 183 7;
#X connect 163 0 183 10;
#X connect 163 1 183 11;
#X connect 164 0 183 12;
#X connect 164 1 183 13;
#X connect 165 0 183 8;
#X connect 165 1 183 9;
#X connect 166 0 183 14;
#X connect 166 1 183 15;
#X connect 167 0 183 16;
#X connect 167 1 183 17;
#X connect 168 0 183 18;
#X connect 168 1 183 19;
#X connect 170 0 171 0;
#X connect 171 0 169 0;
#X connect 173 0 183 20;
#X connect 173 1 183 21;
#X connect 174 0 176 0;
#X connect 175 0 173 0;
#X connect 176 0 161 0;
#X connect 177 0 130 0;
#X connect 178 0 138 0;
#X connect 179 0 143 0;
#X connect 180 0 154 0;
#X connect 181 0 148 0;
#X connect 182 0 129 0;
#X connect 183 0 185 0;
#X connect 184 0 183 22;
#X connect 185 0 169 0;
#X coords 0 -1 1 1 835 310 2 710 100;
#X restore 10 292 pd results;
#N canvas 709 214 450 300 speed 0;
#X obj 21 21 cnv 20 348 38 empty empty empty 20 12 0 12 #fcc4c4 #404040 0;
#X obj 32 31 tgl 20 0 empty empty RUN 25 10 0 12 #fcfcfc #000000 #000000 0 1;
#X obj 111 31 hsl 170 20 0 1 0 0 empty empty Speed 10 10 0 12 #fcfcfc #000000 #000000 0 1;
#X obj 62 210 s param;
#X floatatom 291 32 5 0 0 1 % - - 0;
#X obj 135 140 * 100;
#X msg 87 179 speed \$1;
#X obj 32 69 select 0 1;
#X msg 32 94 stop;
#X msg 74 94 start;
#X obj 135 90 pow 2;
#X connect 1 0 7 0;
#X connect 2 0 10 0;
#X connect 5 0 4 0;
#X connect 6 0 3 0;
#X connect 7 0 8 0;
#X connect 7 1 9 0;
#X connect 8 0 3 0;
#X connect 9 0 3 0;
#X connect 10 0 5 0;
#X connect 10 0 6 0;
#X coords 0 -1 1 1 350 40 2 20 20;
#X restore 751 140 pd speed;
#N canvas 88 155 750 267 sim 0;
#X obj 21 21 cnv 15 148 38 empty empty empty 20 12 0 14 #c4fcc4 #404040 0;
#X text 24 30 Open for simulation;
#X obj 26 102 r param;
#X obj 26 151 s go;
#X obj 75 151 s pos;
#X obj 125 151 s vel;
#X obj 175 151 s acc;
#X obj 224 151 s hole;
#X obj 274 151 s params;
#X obj 338 151 s inits;
#X text 403 102 outlet 1: bangs after each step \; outlet 2: Body-Nr X/Y (Position) \; outlet 3: Body-Nr Vx/Vy (Velocity) \; outlet 4: Body-Nr Ax/Ay (Acceleration) \; outlet 5: blackhole x/y \; outlet 6: params on msg [params( \; outlet 7: init values on msg [init(;
#X obj 26 126 grav, f 43;
#X connect 2 0 11 0;
#X connect 11 0 3 0;
#X connect 11 1 4 0;
#X connect 11 2 5 0;
#X connect 11 3 6 0;
#X connect 11 4 7 0;
#X connect 11 5 8 0;
#X connect 11 6 9 0;
#X coords 0 -1 1 1 150 40 2 20 20;
#X restore 852 292 pd sim;
#N canvas 0 260 1205 595 more 0;
#X obj 219 20 cnv 20 960 550 empty empty Analysis 20 12 0 12 #e0e0e0 #404040 0;
#X obj 233 48 hsl 170 20 -50 50 0 0 empty valx1 x1 10 10 0 12 #c6ffc7 #000000 #000000 0 1;
#X obj 413 48 hsl 170 20 -50 50 0 0 empty valy1 y1 10 10 0 12 #c6ffc7 #000000 #000000 0 1;
#X obj 593 48 hsl 170 20 -50 50 0 0 empty valx2 x2 10 10 0 12 #c6ffc7 #000000 #000000 0 1;
#X obj 773 48 hsl 170 20 -50 50 0 0 empty valy2 y2 10 10 0 12 #c6ffc7 #000000 #000000 0 1;
#X floatatom 230 73 5 0 0 0 - - - 0;
#X obj 230 97 s x1;
#X floatatom 770 73 5 0 0 0 - - - 0;
#X floatatom 590 73 5 0 0 0 - - - 0;
#X obj 590 97 s x2;
#X floatatom 410 73 5 0 0 0 - - - 0;
#X obj 410 97 s y1;
#X obj 230 266 pack f f f f;
#X obj 230 196 r x1;
#X obj 265 221 t b f;
#X obj 308 221 t b f;
#X obj 351 221 t b f;
#X listbox 230 292 32 0 0 0 - - - 0;
#X obj 230 316 s xy;
#X obj 770 97 s y2;
#X obj 351 196 r y2;
#X obj 265 196 r y1;
#X obj 308 196 r x2;
#X obj 233 122 hsl 170 20 -5 5 0 0 empty valvx1 Vx1 10 10 0 12 #c6ffc7 #000000 #000000 0 1;
#X obj 413 122 hsl 170 20 -5 5 0 0 empty valvy1 Vy1 10 10 0 12 #c6ffc7 #000000 #000000 0 1;
#X obj 593 122 hsl 170 20 -5 5 0 0 empty valvx2 Vx2 10 10 0 12 #c6ffc7 #000000 #000000 0 1;
#X obj 773 122 hsl 170 20 -5 5 0 0 empty valvy2 Vy2 10 10 0 12 #c6ffc7 #000000 #000000 0 1;
#X floatatom 230 147 5 0 0 0 - - - 0;
#X floatatom 770 147 5 0 0 0 - - - 0;
#X floatatom 590 147 5 0 0 0 - - - 0;
#X floatatom 410 147 5 0 0 0 - - - 0;
#X obj 230 171 s vx1;
#X obj 410 171 s vy1;
#X obj 590 171 s vx2;
#X obj 770 171 s vy2;
#X obj 692 196 r x1;
#X obj 727 221 t b f;
#X obj 770 221 t b f;
#X obj 813 221 t b f;
#X listbox 692 293 68 0 0 0 - - - 0;
#X obj 813 196 r y2;
#X obj 727 196 r y1;
#X obj 770 196 r x2;
#X obj 692 267 pack f f f f f f f f;
#X obj 899 221 t b f;
#X obj 942 221 t b f;
#X obj 985 221 t b f;
#X obj 856 221 t b f;
#X obj 856 196 r vx1;
#X obj 899 196 r vy1;
#X obj 942 196 r vx2;
#X obj 985 196 r vy2;
#X obj 692 317 s xyvxy;
#X obj 461 266 pack f f f f;
#X obj 504 221 t b f;
#X obj 547 221 t b f;
#X obj 590 221 t b f;
#X listbox 461 292 32 0 0 0 - - - 0;
#X obj 461 196 r vx1;
#X obj 504 196 r vy1;
#X obj 547 196 r vx2;
#X obj 590 196 r vy2;
#X obj 461 316 s vxy;
#X msg 1054 72 \; valx1 0 \; valy1 0 \; valx2 0 \; valy2 0 \; valvx1 0 \; valvy1 0 \; valvx2 0 \; valvy2 0 \;;
#X obj 1054 47 bng 20 250 50 0 empty empty Reset 25 10 0 12 #fcfcfc #000000 #000000;
#X obj 224 435 cnv 20 100 25 empty empty empty 20 12 0 12 #c6ffc7 #404040 0;
#X obj 224 529 cnv 20 100 25 empty empty empty 20 12 0 12 #c6ffc7 #404040 0;
#X obj 746 435 cnv 20 100 25 empty empty empty 20 12 0 12 #c6ffc7 #404040 0;
#X obj 478 435 cnv 20 100 25 empty empty empty 20 12 0 12 #c6ffc7 #404040 0;
#X obj 478 529 cnv 20 100 25 empty empty empty 20 12 0 12 #c6ffc7 #404040 0;
#X floatatom 230 438 11 0 0 0 - - - 0;
#X obj 230 388 r xy;
#X text 228 368 distance between two positions;
#X floatatom 230 532 11 0 0 0 - - - 0;
#X obj 230 482 r xy;
#X text 228 462 angle between two positions;
#X floatatom 484 532 11 0 0 0 - - - 0;
#X obj 484 482 r xyvxy;
#X text 482 463 approach rate of two bodies;
#X floatatom 484 438 11 0 0 0 - - - 0;
#X text 482 368 relative velocity of two bodies;
#X obj 484 388 r vxy;
#X floatatom 752 438 11 0 0 0 - - - 0;
#X obj 752 388 r xy;
#X text 750 368 center between two positions;
#X obj 746 529 cnv 20 100 25 empty empty empty 20 12 0 12 #c6ffc7 #404040 0;
#X floatatom 752 532 11 0 0 0 - - - 0;
#X obj 752 482 r xy;
#X text 750 462 Zone enter/exit;
#X obj 919 463 hsl 170 20 0 100 0 0 empty empty Min\ distance\ to\ zone -2 -10 0 12 #c6ffc7 #000000 #000000 0 1;
#X floatatom 916 488 5 0 0 0 - - - 0;
#X obj 21 21 cnv 15 188 38 empty empty empty 20 12 0 14 #c4fcc4 #404040 0;
#X text 24 30 Open for function details;
#X obj 230 413 gravf distance;
#X obj 484 413 gravf relativev;
#X obj 752 413 gravf center;
#X obj 230 507 gravf angle;
#X obj 484 507 gravf approach;
#X obj 752 507 gravf inzone;
#X connect 1 0 5 0;
#X connect 2 0 10 0;
#X connect 3 0 8 0;
#X connect 4 0 7 0;
#X connect 5 0 6 0;
#X connect 7 0 19 0;
#X connect 8 0 9 0;
#X connect 10 0 11 0;
#X connect 12 0 17 0;
#X connect 13 0 12 0;
#X connect 14 0 12 0;
#X connect 14 1 12 1;
#X connect 15 0 12 0;
#X connect 15 1 12 2;
#X connect 16 0 12 0;
#X connect 16 1 12 3;
#X connect 17 0 18 0;
#X connect 20 0 16 0;
#X connect 21 0 14 0;
#X connect 22 0 15 0;
#X connect 23 0 27 0;
#X connect 24 0 30 0;
#X connect 25 0 29 0;
#X connect 26 0 28 0;
#X connect 27 0 31 0;
#X connect 28 0 34 0;
#X connect 29 0 33 0;
#X connect 30 0 32 0;
#X connect 35 0 43 0;
#X connect 36 0 43 0;
#X connect 36 1 43 1;
#X connect 37 0 43 0;
#X connect 37 1 43 2;
#X connect 38 0 43 0;
#X connect 38 1 43 3;
#X connect 39 0 52 0;
#X connect 40 0 38 0;
#X connect 41 0 36 0;
#X connect 42 0 37 0;
#X connect 43 0 39 0;
#X connect 44 0 43 0;
#X connect 44 1 43 5;
#X connect 45 0 43 0;
#X connect 45 1 43 6;
#X connect 46 0 43 0;
#X connect 46 1 43 7;
#X connect 47 0 43 0;
#X connect 47 1 43 4;
#X connect 48 0 47 0;
#X connect 49 0 44 0;
#X connect 50 0 45 0;
#X connect 51 0 46 0;
#X connect 53 0 57 0;
#X connect 54 0 53 0;
#X connect 54 1 53 1;
#X connect 55 0 53 0;
#X connect 55 1 53 2;
#X connect 56 0 53 0;
#X connect 56 1 53 3;
#X connect 57 0 62 0;
#X connect 58 0 53 0;
#X connect 59 0 54 0;
#X connect 60 0 55 0;
#X connect 61 0 56 0;
#X connect 64 0 63 0;
#X connect 71 0 93 0;
#X connect 74 0 96 0;
#X connect 77 0 97 0;
#X connect 81 0 94 0;
#X connect 83 0 95 0;
#X connect 87 0 98 0;
#X connect 89 0 90 0;
#X connect 90 0 98 1;
#X connect 93 0 70 0;
#X connect 94 0 79 0;
#X connect 95 0 82 0;
#X connect 96 0 73 0;
#X connect 97 0 76 0;
#X connect 98 0 86 0;
#X coords 0 -1 1 1 190 40 2 20 20;
#X restore 852 338 pd more options;
#X f 18;
#N canvas 64 138 1135 395 sound 0;
#X obj 662 57 route 0 1 2 3 4 5 6 7 8 9;
#X obj 527 143 spigot;
#X obj 566 119 == 0;
#X obj 577 143 spigot;
#X obj 627 143 spigot;
#X obj 677 143 spigot;
#X obj 727 143 spigot;
#X obj 777 143 spigot;
#X obj 827 143 spigot;
#X obj 877 143 spigot;
#X obj 927 143 spigot;
#X obj 977 143 spigot;
#X obj 616 119 == 1;
#X obj 666 119 == 2;
#X obj 716 119 == 3;
#X obj 766 119 == 4;
#X obj 816 119 == 5;
#X obj 866 119 == 6;
#X obj 916 119 == 7;
#X obj 966 119 == 8;
#X obj 1016 119 == 9;
#X obj 662 33 r pos;
#X obj 1070 99 r bnr;
#X obj 21 51 cnv 20 348 123 empty empty Listen\ to\ the\ bodies\ (increase\ speed) 20 12 0 12 #ffe3c6 #404040 0;
#X obj 31 79 hsl 170 20 0 9 0 0 empty empty Number 10 10 0 12 #fcfcfc #000000 #000000 0 1;
#X obj 443 60 i;
#X obj 468 60 + 1;
#X floatatom 203 80 5 0 0 0 - - - 0;
#X obj 493 80 s bnr;
#X obj 31 102 hsl 170 20 1 100 0 0 empty empty Factor 10 10 0 12 #fcfcfc #000000 #000000 0 1;
#X obj 378 122 s fact;
#X obj 31 125 hsl 170 20 0 1 0 0 empty empty Volume 10 10 0 12 #fcfcfc #000000 #000000 0 1;
#X obj 443 106 * 100;
#X obj 482 106 i;
#X floatatom 203 126 5 0 0 0 - - - 0;
#X obj 443 83 i;
#X floatatom 203 103 5 0 0 0 - - - 0;
#X obj 378 145 s vol;
#N canvas 168 92 811 719 sound 0;
#X obj 20 30 inlet;
#X obj 63 30 inlet;
#X obj 82 673 dac~;
#X obj 151 561 rev3~, f 14;
#X msg 205 527 100;
#X msg 239 527 90;
#X obj 205 502 loadbang;
#X obj 28 473 *~;
#X obj 71 473 *~;
#X obj 202 388 r rev;
#X obj 202 423 expr 1 - $f1;
#X obj 160 601 r vol;
#X obj 74 621 *~;
#X obj 117 621 *~;
#X obj 112 473 *~;
#X obj 155 473 *~;
#X obj 20 55 + 100;
#X obj 63 55 + 100;
#X obj 170 214 osc~;
#X obj 170 328 *~;
#X obj 214 282 vline~;
#X obj 214 307 pow~ 2;
#X obj 170 89 * 4;
#X obj 214 232 r rping;
#X obj 20 214 osc~;
#X obj 20 318 *~;
#X obj 64 272 vline~;
#X obj 64 297 pow~ 2;
#X obj 20 89 * 4;
#X obj 64 222 r lping;
#X obj 222 141 osc~;
#X obj 221 169 *~;
#N canvas 143 100 913 565 zonepings 0;
#X obj 316 32 r pos;
#X obj 23 135 pack f f 0 0;
#X obj 23 106 unpack f f;
#X obj 184 135 pack f f 0 0;
#X obj 184 106 unpack f f;
#X obj 345 135 pack f f 0 0;
#X obj 345 106 unpack f f;
#X obj 506 135 pack f f 0 0;
#X obj 506 106 unpack f f;
#X obj 667 135 pack f f 0 0;
#X obj 667 106 unpack f f;
#X obj 317 57 route 0 1 2 3 4;
#X floatatom 23 185 5 0 0 0 - - - 0;
#X floatatom 184 185 5 0 0 0 - - - 0;
#X floatatom 345 185 5 0 0 0 - - - 0;
#X floatatom 506 185 5 0 0 0 - - - 0;
#X floatatom 667 185 5 0 0 0 - - - 0;
#X text 448 245 zone enter/exit to noise;
#X obj 326 296 r pos;
#X obj 32 399 pack f f 0 0;
#X obj 32 370 unpack f f;
#X obj 193 399 pack f f 0 0;
#X obj 193 370 unpack f f;
#X obj 354 399 pack f f 0 0;
#X obj 354 370 unpack f f;
#X obj 515 399 pack f f 0 0;
#X obj 515 370 unpack f f;
#X obj 676 399 pack f f 0 0;
#X obj 676 370 unpack f f;
#X floatatom 193 449 5 0 0 0 - - - 0;
#X floatatom 354 449 5 0 0 0 - - - 0;
#X floatatom 515 449 5 0 0 0 - - - 0;
#X floatatom 676 449 5 0 0 0 - - - 0;
#X obj 354 510 s lping;
#X text 457 509 body 5 - 9 zone enter/exit to noise;
#X obj 326 321 route 5 6 7 8 9;
#X obj 345 246 s rping;
#X obj 23 160 gravf inzone;
#X obj 184 160 gravf inzone;
#X obj 345 160 gravf inzone;
#X obj 506 160 gravf inzone;
#X obj 667 160 gravf inzone;
#X obj 32 424 gravf inzone;
#X obj 193 424 gravf inzone;
#X obj 354 424 gravf inzone;
#X obj 515 424 gravf inzone;
#X obj 676 424 gravf inzone;
#X obj 772 140 r distance;
#X obj 781 404 r distance;
#X floatatom 32 449 5 0 0 0 - - - 0;
#X connect 0 0 11 0;
#X connect 1 0 37 0;
#X connect 2 0 1 0;
#X connect 2 1 1 1;
#X connect 3 0 38 0;
#X connect 4 0 3 0;
#X connect 4 1 3 1;
#X connect 5 0 39 0;
#X connect 6 0 5 0;
#X connect 6 1 5 1;
#X connect 7 0 40 0;
#X connect 8 0 7 0;
#X connect 8 1 7 1;
#X connect 9 0 41 0;
#X connect 10 0 9 0;
#X connect 10 1 9 1;
#X connect 11 0 2 0;
#X connect 11 1 4 0;
#X connect 11 2 6 0;
#X connect 11 3 8 0;
#X connect 11 4 10 0;
#X connect 12 0 36 0;
#X connect 13 0 36 0;
#X connect 14 0 36 0;
#X connect 15 0 36 0;
#X connect 16 0 36 0;
#X connect 18 0 35 0;
#X connect 19 0 42 0;
#X connect 20 0 19 0;
#X connect 20 1 19 1;
#X connect 21 0 43 0;
#X connect 22 0 21 0;
#X connect 22 1 21 1;
#X connect 23 0 44 0;
#X connect 24 0 23 0;
#X connect 24 1 23 1;
#X connect 25 0 45 0;
#X connect 26 0 25 0;
#X connect 26 1 25 1;
#X connect 27 0 46 0;
#X connect 28 0 27 0;
#X connect 28 1 27 1;
#X connect 29 0 33 0;
#X connect 30 0 33 0;
#X connect 31 0 33 0;
#X connect 32 0 33 0;
#X connect 35 0 20 0;
#X connect 35 1 22 0;
#X connect 35 2 24 0;
#X connect 35 3 26 0;
#X connect 35 4 28 0;
#X connect 37 0 12 0;
#X connect 38 0 13 0;
#X connect 39 0 14 0;
#X connect 40 0 15 0;
#X connect 41 0 16 0;
#X connect 42 0 49 0;
#X connect 43 0 29 0;
#X connect 44 0 30 0;
#X connect 45 0 31 0;
#X connect 46 0 32 0;
#X connect 47 0 41 1;
#X connect 47 0 40 1;
#X connect 47 0 39 1;
#X connect 47 0 38 1;
#X connect 47 0 37 1;
#X connect 48 0 46 1;
#X connect 48 0 45 1;
#X connect 48 0 44 1;
#X connect 48 0 43 1;
#X connect 48 0 42 1;
#X connect 49 0 33 0;
#X restore 190 23 pd zonepings;
#X obj 20 190 +~;
#X obj 170 190 +~;
#X obj 681 23 r hole;
#X obj 607 106 r rping;
#X obj 549 106 r lping;
#X obj 468 304 f;
#X obj 512 304 f;
#X obj 86 141 osc~;
#X obj 85 169 *~;
#X obj 392 49 inlet;
#X obj 392 74 sel 0 1;
#X obj 222 109 *~ 1;
#X obj 263 141 *~ 1;
#X msg 440 102 1;
#X obj 392 102 t b b;
#X msg 392 130 1;
#X msg 426 130 0;
#X obj 86 109 *~ 1;
#X obj 127 141 *~ 1;
#X msg 681 49 \$1 \$2 0 0;
#X obj 681 99 abs;
#X obj 681 124 / 20;
#X obj 681 149 i;
#X obj 615 184 random;
#X obj 667 184 random;
#X obj 607 131 t b b;
#X obj 549 131 t b b;
#X obj 634 237 + 1;
#X obj 582 237 + 1;
#X obj 582 262 spigot;
#X obj 634 262 spigot;
#N canvas 141 197 941 708 drone 0;
#X obj 56 441 phasor~;
#X obj 56 466 expr~ $v1 * 2 - 1;
#X obj 184 440 phasor~;
#X obj 184 465 expr~ $v1 * 2 - 1;
#X obj 311 440 phasor~;
#X obj 311 465 expr~ $v1 * 2 - 1;
#X obj 184 415 + 0.1;
#X obj 311 415 + 0.2;
#X obj 422 540 lop~ 300;
#X obj 422 665 outlet~;
#X msg 187 66 \$1 \$2 0 0;
#X obj 437 439 phasor~;
#X obj 437 464 expr~ $v1 * 2 - 1;
#X obj 564 439 phasor~;
#X obj 564 464 expr~ $v1 * 2 - 1;
#X obj 437 414 + 0.3;
#X obj 564 415 + 0.4;
#X obj 187 15 r pos;
#X obj 321 539 lop~ 300;
#X obj 321 665 outlet~;
#X obj 692 439 phasor~;
#X obj 692 464 expr~ $v1 * 2 - 1;
#X obj 692 415 + 0.5;
#X obj 187 40 route 1;
#X obj 187 116 / 20;
#X obj 187 141 i;
#X obj 187 166 + 36;
#X obj 187 192 mtof;
#X obj 187 321 line;
#X floatatom 187 346 5 0 0 0 - - - 0;
#X obj 187 227 f;
#X obj 302 65 loadbang;
#X obj 302 92 metro 5000;
#X obj 425 64 random 2000;
#X obj 425 89 expr 5000 + $f1;
#X obj 187 252 pack f f;
#X msg 187 295 \$1 \$2 10;
#X obj 425 114 / 4;
#X obj 623 202 noise~;
#X obj 624 261 bp~;
#X obj 624 286 *~;
#X obj 513 271 vline~;
#X obj 513 296 pow~ 2;
#X obj 688 203 loadbang;
#X msg 689 229 100;
#X obj 610 175 * 25;
#X obj 623 227 lop~ 600;
#X obj 515 218 f;
#X obj 624 311 clip~ -0.6 0.6;
#X obj 187 91 gravf angle;
#X obj 321 640 *~;
#X obj 422 640 *~;
#X obj 296 244 loadbang;
#X obj 296 271 metro 1000;
#X obj 385 271 random 10000;
#X obj 650 545 osc~;
#X obj 649 619 pow~ 2;
#X msg 650 520 0.1;
#X obj 650 570 expr~ $v1 * 0.3 + 1.6;
#X obj 616 545 osc~;
#X obj 321 564 *~;
#X obj 422 565 *~;
#X obj 616 496 loadbang;
#X obj 650 595 *~ 0.4;
#X msg 616 520 60;
#X obj 456 114 / 2;
#X msg 513 245 2 \$1 \, 0 \$1 \$1;
#X connect 0 0 1 0;
#X connect 1 0 18 0;
#X connect 2 0 3 0;
#X connect 3 0 8 0;
#X connect 4 0 5 0;
#X connect 5 0 18 0;
#X connect 6 0 2 0;
#X connect 7 0 4 0;
#X connect 8 0 61 0;
#X connect 10 0 49 0;
#X connect 11 0 12 0;
#X connect 12 0 8 0;
#X connect 13 0 14 0;
#X connect 14 0 18 0;
#X connect 15 0 11 0;
#X connect 16 0 13 0;
#X connect 17 0 23 0;
#X connect 18 0 60 0;
#X connect 20 0 21 0;
#X connect 21 0 8 0;
#X connect 22 0 20 0;
#X connect 23 0 10 0;
#X connect 24 0 25 0;
#X connect 25 0 26 0;
#X connect 26 0 27 0;
#X connect 27 0 30 1;
#X connect 28 0 29 0;
#X connect 29 0 0 0;
#X connect 29 0 6 0;
#X connect 29 0 7 0;
#X connect 29 0 15 0;
#X connect 29 0 16 0;
#X connect 29 0 22 0;
#X connect 30 0 35 0;
#X connect 30 0 45 0;
#X connect 31 0 32 0;
#X connect 32 0 30 0;
#X connect 32 0 33 0;
#X connect 33 0 34 0;
#X connect 34 0 32 1;
#X connect 34 0 37 0;
#X connect 34 0 65 0;
#X connect 35 0 36 0;
#X connect 36 0 28 0;
#X connect 37 0 35 1;
#X connect 38 0 46 0;
#X connect 39 0 40 0;
#X connect 40 0 48 0;
#X connect 41 0 42 0;
#X connect 42 0 40 1;
#X connect 43 0 44 0;
#X connect 44 0 39 2;
#X connect 45 0 39 1;
#X connect 46 0 39 0;
#X connect 47 0 66 0;
#X connect 48 0 19 0;
#X connect 48 0 9 0;
#X connect 49 0 24 0;
#X connect 50 0 19 0;
#X connect 51 0 9 0;
#X connect 52 0 53 0;
#X connect 53 0 54 0;
#X connect 53 0 47 0;
#X connect 54 0 53 1;
#X connect 55 0 58 0;
#X connect 56 0 51 1;
#X connect 56 0 50 1;
#X connect 57 0 55 0;
#X connect 58 0 63 0;
#X connect 59 0 60 1;
#X connect 59 0 61 1;
#X connect 60 0 50 0;
#X connect 61 0 51 0;
#X connect 62 0 64 0;
#X connect 62 0 57 0;
#X connect 63 0 56 0;
#X connect 64 0 59 0;
#X connect 65 0 47 1;
#X connect 66 0 41 0;
#X restore 224 452 pd drone;
#N canvas 406 272 448 209 delay 0;
#X obj 43 30 inlet~;
#X obj 43 131 outlet~;
#X obj 59 57 delwrite~ delL 1000;
#X obj 60 105 delread~ delL 500;
#X obj 150 81 *~ 0.8;
#X connect 0 0 2 0;
#X connect 0 0 1 0;
#X connect 3 0 1 0;
#X connect 3 0 4 0;
#X connect 4 0 2 0;
#X restore 20 344 pd delay;
#X msg 64 247 0.9 5 \, 0 500 5;
#X msg 214 257 0.9 5 \, 0 500 5;
#N canvas 342 317 450 202 delay 0;
#X obj 43 30 inlet~;
#X obj 43 131 outlet~;
#X obj 59 57 delwrite~ delR 1000;
#X obj 60 105 delread~ delR 750;
#X obj 150 81 *~ 0.8;
#X connect 0 0 1 0;
#X connect 0 0 2 0;
#X connect 3 0 1 0;
#X connect 3 0 4 0;
#X connect 4 0 2 0;
#X restore 170 353 pd delay;
#X obj 681 74 gravf angle;
#X obj 481 373 metro 500;
#X obj 563 375 random 1000;
#X obj 487 497 osc~;
#X obj 373 353 r pos;
#X obj 373 378 route 3;
#X obj 373 403 unpack f f;
#X obj 373 428 abs;
#X obj 373 453 ftom;
#X obj 373 478 i;
#X obj 373 503 * 4;
#X obj 373 528 mtof;
#X obj 481 404 f;
#X obj 560 469 vline~;
#X obj 487 522 *~;
#X msg 560 444 0.5 5 \, 0 200 5;
#X obj 373 553 clip 60 120;
#X obj 121 222 r pL;
#X obj 272 232 r pR;
#X connect 0 0 16 0;
#X connect 1 0 17 0;
#X connect 3 0 12 0;
#X connect 3 1 13 0;
#X connect 4 0 3 2;
#X connect 5 0 3 3;
#X connect 6 0 4 0;
#X connect 6 0 5 0;
#X connect 7 0 12 0;
#X connect 8 0 13 0;
#X connect 9 0 10 0;
#X connect 9 0 15 1;
#X connect 9 0 14 1;
#X connect 10 0 7 1;
#X connect 10 0 8 1;
#X connect 11 0 13 1;
#X connect 11 0 12 1;
#X connect 12 0 2 0;
#X connect 13 0 2 1;
#X connect 14 0 3 0;
#X connect 15 0 3 1;
#X connect 16 0 28 0;
#X connect 17 0 22 0;
#X connect 18 0 19 0;
#X connect 19 0 68 0;
#X connect 20 0 21 0;
#X connect 21 0 19 1;
#X connect 22 0 34 0;
#X connect 22 0 44 0;
#X connect 23 0 67 0;
#X connect 24 0 25 0;
#X connect 25 0 65 0;
#X connect 26 0 27 0;
#X connect 27 0 25 1;
#X connect 28 0 33 0;
#X connect 28 0 50 0;
#X connect 29 0 66 0;
#X connect 30 0 31 0;
#X connect 31 0 34 1;
#X connect 33 0 24 0;
#X connect 34 0 18 0;
#X connect 35 0 52 0;
#X connect 36 0 58 0;
#X connect 37 0 59 0;
#X connect 38 0 45 1;
#X connect 38 0 50 1;
#X connect 39 0 44 1;
#X connect 39 0 51 1;
#X connect 40 0 41 0;
#X connect 41 0 33 1;
#X connect 42 0 43 0;
#X connect 43 0 47 0;
#X connect 43 1 46 0;
#X connect 44 0 30 0;
#X connect 44 0 45 0;
#X connect 45 0 31 1;
#X connect 46 0 62 1;
#X connect 46 0 63 1;
#X connect 47 0 48 0;
#X connect 47 1 49 0;
#X connect 48 0 38 1;
#X connect 48 0 39 1;
#X connect 49 0 62 1;
#X connect 49 0 63 1;
#X connect 50 0 40 0;
#X connect 50 0 51 0;
#X connect 51 0 41 1;
#X connect 52 0 69 0;
#X connect 53 0 54 0;
#X connect 54 0 55 0;
#X connect 55 0 56 1;
#X connect 55 0 57 1;
#X connect 56 0 61 0;
#X connect 57 0 60 0;
#X connect 58 0 39 0;
#X connect 58 1 57 0;
#X connect 59 0 38 0;
#X connect 59 1 56 0;
#X connect 60 0 63 0;
#X connect 61 0 62 0;
#X connect 62 0 38 1;
#X connect 63 0 39 1;
#X connect 64 0 7 0;
#X connect 64 0 14 0;
#X connect 64 1 8 0;
#X connect 64 1 15 0;
#X connect 65 0 7 0;
#X connect 65 0 14 0;
#X connect 66 0 26 0;
#X connect 67 0 20 0;
#X connect 68 0 8 0;
#X connect 68 0 15 0;
#X connect 69 0 53 0;
#X connect 70 0 71 0;
#X connect 70 0 81 0;
#X connect 70 0 84 0;
#X connect 71 0 70 1;
#X connect 72 0 83 0;
#X connect 73 0 74 0;
#X connect 74 0 75 0;
#X connect 75 0 76 0;
#X connect 76 0 77 0;
#X connect 77 0 78 0;
#X connect 78 0 79 0;
#X connect 79 0 80 0;
#X connect 80 0 85 0;
#X connect 81 0 72 0;
#X connect 82 0 83 1;
#X connect 83 0 68 0;
#X connect 83 0 65 0;
#X connect 84 0 82 0;
#X connect 85 0 81 1;
#X connect 86 0 66 0;
#X connect 87 0 67 0;
#X restore 763 285 pd sound;
#X f 10;
#X obj 763 210 unpack f f;
#X obj 125 3 loadbang;
#X msg 122 28 0;
#X msg 159 28 1;
#X obj 31 148 hsl 170 20 0 1 0 0 empty empty Reverb 10 10 0 12 #fcfcfc #000000 #000000 0 1;
#X floatatom 203 149 5 0 0 0 - - - 0;
#X obj 378 168 s rev;
#X obj 442 129 * 100;
#X obj 481 129 i;
#X obj 763 235 abs;
#X obj 830 235 abs;
#X obj 763 260 *;
#X obj 830 260 *;
#X obj 885 240 r fact;
#X msg 195 29 0.8;
#X obj 246 79 bng 20 250 50 0 empty empty L 25 10 0 12 #fcfcfc #000000 #000000;
#X obj 272 2 r lping;
#X obj 328 2 r rping;
#X obj 291 79 bng 20 250 50 0 empty empty R 25 10 0 12 #fcfcfc #000000 #000000;
#X obj 246 125 tgl 20 0 empty empty Black\ hole\ FM 25 10 0 12 #fcfcfc #000000 #000000 0 1;
#X obj 246 148 tgl 20 0 empty empty DSP\ on/off 25 10 0 12 #c6ffc7 #000000 #000000 0 1;
#X msg 246 217 \; pd dsp \$1;
#X obj 342 219 s pL;
#X obj 398 219 s pR;
#X obj 249 102 hsl 110 20 0 500 0 0 empty empty Distance 10 10 0 12 #fcfcfc #000000 #000000 0 1;
#X obj 150 219 s distance;
#X msg 236 28 20;
#X connect 0 0 1 0;
#X connect 0 1 3 0;
#X connect 0 2 4 0;
#X connect 0 3 5 0;
#X connect 0 4 6 0;
#X connect 0 5 7 0;
#X connect 0 6 8 0;
#X connect 0 7 9 0;
#X connect 0 8 10 0;
#X connect 0 9 11 0;
#X connect 1 0 39 0;
#X connect 2 0 1 1;
#X connect 3 0 39 0;
#X connect 4 0 39 0;
#X connect 5 0 39 0;
#X connect 6 0 39 0;
#X connect 7 0 39 0;
#X connect 8 0 39 0;
#X connect 9 0 39 0;
#X connect 10 0 39 0;
#X connect 11 0 39 0;
#X connect 12 0 3 1;
#X connect 13 0 4 1;
#X connect 14 0 5 1;
#X connect 15 0 6 1;
#X connect 16 0 7 1;
#X connect 17 0 8 1;
#X connect 18 0 9 1;
#X connect 19 0 10 1;
#X connect 20 0 11 1;
#X connect 21 0 0 0;
#X connect 22 0 2 0;
#X connect 22 0 12 0;
#X connect 22 0 13 0;
#X connect 22 0 14 0;
#X connect 22 0 15 0;
#X connect 22 0 16 0;
#X connect 22 0 17 0;
#X connect 22 0 18 0;
#X connect 22 0 19 0;
#X connect 22 0 20 0;
#X connect 24 0 25 0;
#X connect 25 0 26 0;
#X connect 25 0 28 0;
#X connect 26 0 27 0;
#X connect 29 0 30 0;
#X connect 29 0 35 0;
#X connect 31 0 32 0;
#X connect 31 0 37 0;
#X connect 32 0 33 0;
#X connect 33 0 34 0;
#X connect 35 0 36 0;
#X connect 39 0 48 0;
#X connect 39 1 49 0;
#X connect 40 0 41 0;
#X connect 40 0 42 0;
#X connect 40 0 53 0;
#X connect 40 0 65 0;
#X connect 41 0 24 0;
#X connect 41 0 31 0;
#X connect 42 0 29 0;
#X connect 43 0 45 0;
#X connect 43 0 46 0;
#X connect 46 0 47 0;
#X connect 47 0 44 0;
#X connect 48 0 50 0;
#X connect 49 0 51 0;
#X connect 50 0 38 0;
#X connect 51 0 38 1;
#X connect 52 0 51 1;
#X connect 52 0 50 1;
#X connect 53 0 43 0;
#X connect 54 0 61 0;
#X connect 55 0 54 0;
#X connect 56 0 57 0;
#X connect 57 0 62 0;
#X connect 58 0 38 2;
#X connect 59 0 60 0;
#X connect 63 0 64 0;
#X connect 65 0 63 0;
#X coords 0 -1 1 1 350 125 2 20 50;
#X restore 751 9 pd sound;
#X obj 751 190 declare -path build;
#N canvas 150 119 899 262 more 0;
#X msg 195 21 dump;
#X msg 195 44 reset;
#X msg 195 67 params;
#X msg 195 90 init;
#X msg 451 21 limits \$1;
#X msg 451 43 nudge;
#X text 234 21 data dump to console;
#X text 241 44 reset to start;
#X text 525 21 limits -100 to 100 on/off;
#X text 496 43 body nutging when they git stuck;
#X msg 451 68 mass \$1 \$2;
#X text 528 67 changes simulation mass of a body;
#X obj 195 116 s param;
#X obj 195 143 r params;
#X obj 195 168 print [PARAM];
#X obj 294 143 r inits;
#X obj 294 168 print [INIT BODY];
#X obj 21 21 cnv 20 158 38 empty empty empty 20 12 0 12 #c6ffc7 #404040 0;
#X text 24 29 Open for more options;
#X text 249 66 params to outlet 6;
#X text 232 90 init values to outlet 7;
#X connect 0 0 12 0;
#X connect 1 0 12 0;
#X connect 2 0 12 0;
#X connect 3 0 12 0;
#X connect 13 0 14 0;
#X connect 15 0 16 0;
#X coords 0 -1 1 1 160 40 2 20 20;
#X restore 853 383 pd more;
